<?xml version="1.0" encoding="UTF-8" standalone="no"?>
<!-- Generator: Adobe Illustrator 23.0.4, SVG Export Plug-In . SVG Version: 6.00 Build 0)  -->

<svg
   version="1.1"
   id="Layer_1"
   x="0px"
   y="0px"
   viewBox="0 0 32 32"
   style="enable-background:new 0 0 32 32;"
   xml:space="preserve"
   sodipodi:docname="star.svg"
   inkscape:version="1.3.2 (091e20ef0f, 2023-11-25)"
   xmlns:inkscape="http://www.inkscape.org/namespaces/inkscape"
   xmlns:sodipodi="http://sodipodi.sourceforge.net/DTD/sodipodi-0.dtd"
   xmlns="http://www.w3.org/2000/svg"
   xmlns:svg="http://www.w3.org/2000/svg"><defs
   id="defs2" /><sodipodi:namedview
   id="namedview2"
   pagecolor="#ffffff"
   bordercolor="#cccccc"
   borderopacity="1"
   inkscape:showpageshadow="0"
   inkscape:pageopacity="1"
   inkscape:pagecheckerboard="0"
   inkscape:deskcolor="#d1d1d1"
   inkscape:zoom="32"
   inkscape:cx="16.15625"
   inkscape:cy="17.890625"
   inkscape:window-width="3440"
   inkscape:window-height="1368"
   inkscape:window-x="0"
   inkscape:window-y="0"
   inkscape:window-maximized="1"
   inkscape:current-layer="Layer_1" />
<style
   type="text/css"
   id="style1">
	.st0{fill:#008AD0;}
	.st1{fill:#333333;}
</style>
<g
   id="g1"
   style="fill:#000000;fill-opacity:1">
	<path
   class="st1"
   d="m 8.402,30.079 c -0.413,0 -0.823,-0.13 -1.177,-0.388 C 6.588,29.226 6.288,28.457 6.443,27.684 L 7.914,20.329 2.581,14.996 C 2.064,14.479 1.871,13.723 2.075,13.022 2.279,12.321 2.849,11.788 3.561,11.63 l 6.782,-1.507 3.908,-7.034 c 0.353,-0.636 1.023,-1.03 1.749,-1.03 0.726,0 1.396,0.394 1.748,1.028 l 3.908,7.034 6.782,1.507 c 0.712,0.158 1.282,0.691 1.486,1.392 0.204,0.701 0.011,1.457 -0.506,1.974 l -5.333,5.333 1.471,7.354 c 0.154,0.774 -0.146,1.543 -0.782,2.008 -0.638,0.466 -1.461,0.517 -2.15,0.133 L 16,26.144 9.376,29.824 C 9.069,29.995 8.734,30.079 8.402,30.079 Z M 16,24 c 0.167,0 0.335,0.042 0.485,0.126 l 7.109,3.95 -1.575,-7.879 c -0.065,-0.328 0.037,-0.667 0.273,-0.903 l 5.712,-5.712 -7.222,-1.605 c -0.279,-0.062 -0.519,-0.24 -0.657,-0.49 l -4.129,-7.432 -4.123,7.432 c -0.139,0.25 -0.378,0.428 -0.657,0.49 l -7.222,1.605 5.712,5.712 c 0.236,0.236 0.339,0.575 0.273,0.903 l -1.576,7.879 7.11,-3.95 C 15.665,24.042 15.833,24 16,24 Z"
   id="path1"
   style="display:inline;fill:#000000;fill-opacity:1;opacity:1"
   inkscape:label="path1" />
</g>

<path
   style="fill:#000000;fill-opacity:1;stroke-width:0.03125"
   d="m 15.656189,3.1703491 c -0.464633,0.1645721 -0.63453,0.6544843 -0.866837,1.0411086 -1.267139,2.253363 -2.501365,4.5252151 -3.784835,6.7693773 -1.0252276,0.282692 -2.0501498,0.482049 -3.099427,0.723448 -1.3834503,0.312729 -2.77296,0.604517 -4.1526975,0.929976 -0.5653498,0.142123 -0.884772,0.831819 -0.6354741,1.357134 0.2114809,0.406474 0.6101669,0.672956 0.909869,1.012061 1.6427154,1.658153 3.313272,3.289206 4.9332957,4.969568 0.053627,0.145694 -0.05201,0.336352 -0.05807,0.498068 -0.4627263,2.470427 -0.9870553,4.929889 -1.4518822,7.39925 -0.089149,0.560855 0.3810819,1.125304 0.9509688,1.129784 C 8.88482,29.010548 9.2716334,28.667932 9.6910828,28.4748 11.800009,27.331772 13.883502,26.142211 16,25.013122 c 2.398177,1.274663 4.74696,2.640813 7.14801,3.909669 0.529478,0.250412 1.231342,-0.06604 1.368796,-0.640094 0.120426,-0.435355 -0.08471,-0.874084 -0.137707,-1.30634 -0.423055,-2.151473 -0.867328,-4.318525 -1.271372,-6.458657 -0.01159,-0.166609 -0.105464,-0.376623 -0.07245,-0.539743 1.634501,-1.695671 3.31939,-3.340364 4.976923,-5.013358 0.315462,-0.361432 0.765556,-0.637735 0.924324,-1.109924 0.139828,-0.504773 -0.168357,-1.069296 -0.670754,-1.220323 -2.325223,-0.52729 -4.690817,-1.036271 -6.993918,-1.564223 -0.130641,-0.03472 -0.296012,-0.023 -0.329041,-0.189941 C 19.542509,8.4472869 18.219699,5.9736259 16.819947,3.5406681 16.559732,3.1753877 16.080305,3.0234198 15.656189,3.1703491 Z"
   id="path4" /></svg>
