%TF.GenerationSoftware,KiCad,Pcbnew,6.0.2+dfsg-1*%
%TF.CreationDate,2025-11-15T19:05:01+01:00*%
%TF.ProjectId,xmas,786d6173-2e6b-4696-9361-645f70636258,rev?*%
%TF.SameCoordinates,Original*%
%TF.FileFunction,Copper,L2,Bot*%
%TF.FilePolarity,Positive*%
%FSLAX46Y46*%
G04 Gerber Fmt 4.6, Leading zero omitted, Abs format (unit mm)*
G04 Created by KiCad (PCBNEW 6.0.2+dfsg-1) date 2025-11-15 19:05:01*
%MOMM*%
%LPD*%
G01*
G04 APERTURE LIST*
%TA.AperFunction,ComponentPad*%
%ADD10R,1.070000X1.800000*%
%TD*%
%TA.AperFunction,ComponentPad*%
%ADD11O,1.070000X1.800000*%
%TD*%
%TA.AperFunction,ComponentPad*%
%ADD12C,2.000000*%
%TD*%
%TA.AperFunction,ComponentPad*%
%ADD13C,2.400000*%
%TD*%
%TA.AperFunction,ComponentPad*%
%ADD14O,2.400000X2.400000*%
%TD*%
%TA.AperFunction,ComponentPad*%
%ADD15R,2.200000X2.200000*%
%TD*%
%TA.AperFunction,ComponentPad*%
%ADD16C,2.200000*%
%TD*%
%TA.AperFunction,ComponentPad*%
%ADD17C,1.348000*%
%TD*%
%TA.AperFunction,ViaPad*%
%ADD18C,0.800000*%
%TD*%
%TA.AperFunction,Conductor*%
%ADD19C,0.250000*%
%TD*%
G04 APERTURE END LIST*
D10*
%TO.P,D9,1,DO*%
%TO.N,unconnected-(D9-Pad1)*%
X91700000Y-63100000D03*
D11*
%TO.P,D9,2,GND*%
%TO.N,GND*%
X92970000Y-63100000D03*
%TO.P,D9,3,VDD*%
%TO.N,Net-(U1-Pad5V)*%
X94240000Y-63100000D03*
%TO.P,D9,4,DI*%
%TO.N,Net-(D8-Pad1)*%
X95510000Y-63100000D03*
%TD*%
D12*
%TO.P,SW1,1,1*%
%TO.N,Net-(U1-Pad5V)*%
X95050000Y-69350000D03*
X88550000Y-69350000D03*
%TO.P,SW1,2,2*%
%TO.N,Net-(U1-Pad0)*%
X95050000Y-73850000D03*
X88550000Y-73850000D03*
%TD*%
D13*
%TO.P,R1,1*%
%TO.N,GND*%
X101500000Y-60580000D03*
D14*
%TO.P,R1,2*%
%TO.N,Net-(U1-Pad0)*%
X101500000Y-75820000D03*
%TD*%
D10*
%TO.P,D8,1,DO*%
%TO.N,Net-(D8-Pad1)*%
X80490000Y-67100000D03*
D11*
%TO.P,D8,2,GND*%
%TO.N,GND*%
X81760000Y-67100000D03*
%TO.P,D8,3,VDD*%
%TO.N,Net-(U1-Pad5V)*%
X83030000Y-67100000D03*
%TO.P,D8,4,DI*%
%TO.N,Net-(D7-Pad1)*%
X84300000Y-67100000D03*
%TD*%
D10*
%TO.P,D7,1,DO*%
%TO.N,Net-(D7-Pad1)*%
X68000000Y-73100000D03*
D11*
%TO.P,D7,2,GND*%
%TO.N,GND*%
X69270000Y-73100000D03*
%TO.P,D7,3,VDD*%
%TO.N,Net-(U1-Pad5V)*%
X70540000Y-73100000D03*
%TO.P,D7,4,DI*%
%TO.N,Net-(D6-Pad1)*%
X71810000Y-73100000D03*
%TD*%
D10*
%TO.P,D6,1,DO*%
%TO.N,Net-(D6-Pad1)*%
X79100000Y-86600000D03*
D11*
%TO.P,D6,2,GND*%
%TO.N,GND*%
X80370000Y-86600000D03*
%TO.P,D6,3,VDD*%
%TO.N,Net-(U1-Pad5V)*%
X81640000Y-86600000D03*
%TO.P,D6,4,DI*%
%TO.N,Net-(D5-Pad1)*%
X82910000Y-86600000D03*
%TD*%
D10*
%TO.P,D5,1,DO*%
%TO.N,Net-(D5-Pad1)*%
X77300000Y-102000000D03*
D11*
%TO.P,D5,2,GND*%
%TO.N,GND*%
X78570000Y-102000000D03*
%TO.P,D5,3,VDD*%
%TO.N,Net-(U1-Pad5V)*%
X79840000Y-102000000D03*
%TO.P,D5,4,DI*%
%TO.N,Net-(D4-Pad1)*%
X81110000Y-102000000D03*
%TD*%
D10*
%TO.P,D4,1,DO*%
%TO.N,Net-(D4-Pad1)*%
X112300000Y-104400000D03*
D11*
%TO.P,D4,2,GND*%
%TO.N,GND*%
X113570000Y-104400000D03*
%TO.P,D4,3,VDD*%
%TO.N,Net-(U1-Pad5V)*%
X114840000Y-104400000D03*
%TO.P,D4,4,DI*%
%TO.N,Net-(D3-Pad1)*%
X116110000Y-104400000D03*
%TD*%
D10*
%TO.P,D3,1,DO*%
%TO.N,Net-(D3-Pad1)*%
X107500000Y-87000000D03*
D11*
%TO.P,D3,2,GND*%
%TO.N,GND*%
X108770000Y-87000000D03*
%TO.P,D3,3,VDD*%
%TO.N,Net-(U1-Pad5V)*%
X110040000Y-87000000D03*
%TO.P,D3,4,DI*%
%TO.N,Net-(D2-Pad1)*%
X111310000Y-87000000D03*
%TD*%
D10*
%TO.P,D2,1,DO*%
%TO.N,Net-(D2-Pad1)*%
X119900000Y-74000000D03*
D11*
%TO.P,D2,2,GND*%
%TO.N,GND*%
X121170000Y-74000000D03*
%TO.P,D2,3,VDD*%
%TO.N,Net-(U1-Pad5V)*%
X122440000Y-74000000D03*
%TO.P,D2,4,DI*%
%TO.N,Net-(D1-Pad1)*%
X123710000Y-74000000D03*
%TD*%
D10*
%TO.P,D1,1,DO*%
%TO.N,Net-(D1-Pad1)*%
X109000000Y-68600000D03*
D11*
%TO.P,D1,2,GND*%
%TO.N,GND*%
X110270000Y-68600000D03*
%TO.P,D1,3,VDD*%
%TO.N,Net-(U1-Pad5V)*%
X111540000Y-68600000D03*
%TO.P,D1,4,DI*%
%TO.N,Net-(U1-Pad10)*%
X112810000Y-68600000D03*
%TD*%
D15*
%TO.P,J1,1,Pin_1*%
%TO.N,Net-(U1-Pad5V)*%
X97300000Y-54600000D03*
D16*
%TO.P,J1,2,Pin_2*%
%TO.N,GND*%
X94760000Y-54600000D03*
%TD*%
D17*
%TO.P,U1,5,GPIO5*%
%TO.N,unconnected-(U1-Pad5)*%
X103720000Y-100000000D03*
%TO.P,U1,6,GPIO6*%
%TO.N,unconnected-(U1-Pad6)*%
X103720000Y-97460000D03*
%TO.P,U1,7,GPIO7*%
%TO.N,unconnected-(U1-Pad7)*%
X103720000Y-94920000D03*
%TO.P,U1,8,GPIO8*%
%TO.N,unconnected-(U1-Pad8)*%
X103720000Y-92380000D03*
%TO.P,U1,9,GPIO9*%
%TO.N,unconnected-(U1-Pad9)*%
X103720000Y-89840000D03*
%TO.P,U1,10,GPIO10*%
%TO.N,Net-(U1-Pad10)*%
X103720000Y-87300000D03*
%TO.P,U1,20,GPIO20*%
%TO.N,unconnected-(U1-Pad20)*%
X103720000Y-84760000D03*
%TO.P,U1,21,GPIO21*%
%TO.N,unconnected-(U1-Pad21)*%
X103720000Y-82220000D03*
%TO.P,U1,0,GPIO0*%
%TO.N,Net-(U1-Pad0)*%
X88480000Y-82220000D03*
%TO.P,U1,1,GPIO1*%
%TO.N,unconnected-(U1-Pad1)*%
X88480000Y-84760000D03*
%TO.P,U1,2,GPIO2*%
%TO.N,unconnected-(U1-Pad2)*%
X88480000Y-87300000D03*
%TO.P,U1,3,GPIO3*%
%TO.N,unconnected-(U1-Pad3)*%
X88480000Y-89840000D03*
%TO.P,U1,4,GPIO4*%
%TO.N,unconnected-(U1-Pad4)*%
X88480000Y-92380000D03*
%TO.P,U1,3.3,3V3*%
%TO.N,unconnected-(U1-Pad3.3)*%
X88480000Y-94920000D03*
%TO.P,U1,G,GND*%
%TO.N,GND*%
X88480000Y-97460000D03*
%TO.P,U1,5V,5V*%
%TO.N,Net-(U1-Pad5V)*%
X88480000Y-100000000D03*
%TD*%
D18*
%TO.N,Net-(U1-Pad5V)*%
X82550000Y-95250000D03*
%TD*%
D19*
%TO.N,Net-(U1-Pad5V)*%
X111540000Y-68600000D02*
X111540000Y-69630000D01*
X111540000Y-69630000D02*
X113030000Y-71120000D01*
X113030000Y-71120000D02*
X120895272Y-71120000D01*
X120895272Y-71120000D02*
X122440000Y-72664728D01*
X122440000Y-72664728D02*
X122440000Y-74000000D01*
%TO.N,Net-(D1-Pad1)*%
X109000000Y-68600000D02*
X109000000Y-66260000D01*
X109000000Y-66260000D02*
X109220000Y-66040000D01*
X109220000Y-66040000D02*
X121920000Y-66040000D01*
X121920000Y-66040000D02*
X123710000Y-67830000D01*
X123710000Y-67830000D02*
X123710000Y-74000000D01*
%TO.N,GND*%
X110270000Y-68600000D02*
X110270000Y-78520000D01*
X110270000Y-78520000D02*
X110490000Y-78740000D01*
%TO.N,Net-(U1-Pad5V)*%
X122440000Y-74000000D02*
X122440000Y-78220000D01*
X122440000Y-78220000D02*
X120650000Y-80010000D01*
X120650000Y-80010000D02*
X111125000Y-80010000D01*
X111125000Y-80010000D02*
X110040000Y-81095000D01*
X110040000Y-81095000D02*
X110040000Y-87000000D01*
%TO.N,GND*%
X119380000Y-78740000D02*
X110490000Y-78740000D01*
X121170000Y-74000000D02*
X121170000Y-76950000D01*
X121170000Y-76950000D02*
X119380000Y-78740000D01*
X110490000Y-78740000D02*
X108770000Y-80460000D01*
X108770000Y-80460000D02*
X108770000Y-87000000D01*
%TO.N,Net-(D3-Pad1)*%
X109220000Y-95250000D02*
X114300000Y-95250000D01*
X107500000Y-87000000D02*
X107500000Y-93530000D01*
X107500000Y-93530000D02*
X109220000Y-95250000D01*
X114300000Y-95250000D02*
X116110000Y-97060000D01*
X116110000Y-97060000D02*
X116110000Y-104400000D01*
%TO.N,Net-(D4-Pad1)*%
X81110000Y-102000000D02*
X99460000Y-102000000D01*
X99460000Y-102000000D02*
X101860000Y-104400000D01*
X101860000Y-104400000D02*
X112300000Y-104400000D01*
%TO.N,Net-(U1-Pad5V)*%
X82550000Y-95250000D02*
X82550000Y-97790000D01*
X82550000Y-97790000D02*
X84760000Y-100000000D01*
X84760000Y-100000000D02*
X88480000Y-100000000D01*
%TO.N,Net-(D5-Pad1)*%
X77300000Y-102000000D02*
X77300000Y-96690000D01*
X77300000Y-96690000D02*
X78740000Y-95250000D01*
X78740000Y-95250000D02*
X81280000Y-95250000D01*
X81280000Y-95250000D02*
X82910000Y-93620000D01*
X82910000Y-93620000D02*
X82910000Y-86600000D01*
%TO.N,GND*%
X80370000Y-86600000D02*
X80370000Y-77830000D01*
X80370000Y-77830000D02*
X78740000Y-76200000D01*
X78740000Y-76200000D02*
X71120000Y-76200000D01*
X71120000Y-76200000D02*
X69270000Y-74350000D01*
X69270000Y-74350000D02*
X69270000Y-73100000D01*
%TO.N,Net-(D7-Pad1)*%
X84300000Y-67100000D02*
X84300000Y-68100000D01*
X84300000Y-68100000D02*
X82550000Y-69850000D01*
X82550000Y-69850000D02*
X69850000Y-69850000D01*
X69850000Y-69850000D02*
X68000000Y-71700000D01*
X68000000Y-71700000D02*
X68000000Y-73100000D01*
%TO.N,Net-(D8-Pad1)*%
X95510000Y-63100000D02*
X95510000Y-65780000D01*
X95510000Y-65780000D02*
X93980000Y-67310000D01*
X93980000Y-67310000D02*
X88900000Y-67310000D01*
X88900000Y-67310000D02*
X86360000Y-64770000D01*
X86360000Y-64770000D02*
X81259728Y-64770000D01*
X81259728Y-64770000D02*
X80490000Y-65539728D01*
X80490000Y-65539728D02*
X80490000Y-67100000D01*
%TO.N,GND*%
X101500000Y-60580000D02*
X94360000Y-60580000D01*
X94360000Y-60580000D02*
X92970000Y-61970000D01*
X92970000Y-61970000D02*
X92970000Y-63100000D01*
%TD*%
M02*
