M48
; DRILL file {KiCad 6.0.2+dfsg-1} date Sat 15 Nov 2025 07:04:58 PM CET
; FORMAT={-:-/ absolute / inch / decimal}
; #@! TF.CreationDate,2025-11-15T19:04:58+01:00
; #@! TF.GenerationSoftware,Kicad,Pcbnew,6.0.2+dfsg-1
; #@! TF.FileFunction,Plated,1,2,PTH
FMAT,2
INCH
; #@! TA.AperFunction,Plated,PTH,ViaDrill
T1C0.0157
; #@! TA.AperFunction,Plated,PTH,ComponentDrill
T2C0.0331
; #@! TA.AperFunction,Plated,PTH,ComponentDrill
T3C0.0354
; #@! TA.AperFunction,Plated,PTH,ComponentDrill
T4C0.0433
; #@! TA.AperFunction,Plated,PTH,ComponentDrill
T5C0.0472
%
G90
G05
T1
X3.25Y-3.75
T2
X3.4835Y-3.237
X3.4835Y-3.337
X3.4835Y-3.437
X3.4835Y-3.537
X3.4835Y-3.637
X3.4835Y-3.737
X3.4835Y-3.837
X3.4835Y-3.937
X4.0835Y-3.237
X4.0835Y-3.337
X4.0835Y-3.437
X4.0835Y-3.537
X4.0835Y-3.637
X4.0835Y-3.737
X4.0835Y-3.837
X4.0835Y-3.937
T3
X2.6772Y-2.878
X2.7272Y-2.878
X2.7772Y-2.878
X2.8272Y-2.878
X3.0433Y-4.0157
X3.0933Y-4.0157
X3.1142Y-3.4094
X3.1433Y-4.0157
X3.1642Y-3.4094
X3.1689Y-2.6417
X3.1933Y-4.0157
X3.2142Y-3.4094
X3.2189Y-2.6417
X3.2642Y-3.4094
X3.2689Y-2.6417
X3.3189Y-2.6417
X3.6102Y-2.4843
X3.6602Y-2.4843
X3.7102Y-2.4843
X3.7602Y-2.4843
X4.2323Y-3.4252
X4.2823Y-3.4252
X4.2913Y-2.7008
X4.3323Y-3.4252
X4.3413Y-2.7008
X4.3823Y-3.4252
X4.3913Y-2.7008
X4.4213Y-4.1102
X4.4413Y-2.7008
X4.4713Y-4.1102
X4.5213Y-4.1102
X4.5713Y-4.1102
X4.7205Y-2.9134
X4.7705Y-2.9134
X4.8205Y-2.9134
X4.8705Y-2.9134
T4
X3.4862Y-2.7303
X3.4862Y-2.9075
X3.7307Y-2.1496
X3.7421Y-2.7303
X3.7421Y-2.9075
X3.8307Y-2.1496
T5
X3.9961Y-2.385
X3.9961Y-2.985
T0
M30
