%TF.GenerationSoftware,KiCad,Pcbnew,6.0.2+dfsg-1*%
%TF.CreationDate,2025-11-15T19:05:01+01:00*%
%TF.ProjectId,xmas,786d6173-2e6b-4696-9361-645f70636258,rev?*%
%TF.SameCoordinates,Original*%
%TF.FileFunction,Legend,Top*%
%TF.FilePolarity,Positive*%
%FSLAX46Y46*%
G04 Gerber Fmt 4.6, Leading zero omitted, Abs format (unit mm)*
G04 Created by KiCad (PCBNEW 6.0.2+dfsg-1) date 2025-11-15 19:05:01*
%MOMM*%
%LPD*%
G01*
G04 APERTURE LIST*
%ADD10C,0.120000*%
%ADD11C,0.127000*%
G04 APERTURE END LIST*
D10*
%TO.C,D9*%
X91045000Y-61555000D02*
X91045000Y-62020000D01*
X91045000Y-64180000D02*
X91045000Y-64645000D01*
X91045000Y-64644830D02*
G75*
G03*
X96392815Y-64180827I2560000J1544831D01*
G01*
X95859479Y-62019571D02*
G75*
G03*
X91350316Y-62020000I-2254479J-1080429D01*
G01*
X91350316Y-64180000D02*
G75*
G03*
X95859479Y-64180429I2254684J1080000D01*
G01*
X96392814Y-62019173D02*
G75*
G03*
X91045000Y-61555170I-2787814J-1080826D01*
G01*
%TO.C,SW1*%
X95300000Y-72350000D02*
X95300000Y-70850000D01*
X94050000Y-68350000D02*
X89550000Y-68350000D01*
X88300000Y-70850000D02*
X88300000Y-72350000D01*
X89550000Y-74850000D02*
X94050000Y-74850000D01*
%TO.C,R1*%
X101500000Y-74380000D02*
X101500000Y-73270000D01*
X103420000Y-73270000D02*
X103420000Y-63130000D01*
X99580000Y-73270000D02*
X103420000Y-73270000D01*
X101500000Y-62020000D02*
X101500000Y-63130000D01*
X103420000Y-63130000D02*
X99580000Y-63130000D01*
X99580000Y-63130000D02*
X99580000Y-73270000D01*
%TO.C,D8*%
X79835000Y-65555000D02*
X79835000Y-66020000D01*
X79835000Y-68180000D02*
X79835000Y-68645000D01*
X79835000Y-68644830D02*
G75*
G03*
X85182815Y-68180827I2560000J1544831D01*
G01*
X84649479Y-66019571D02*
G75*
G03*
X80140316Y-66020000I-2254479J-1080429D01*
G01*
X80140316Y-68180000D02*
G75*
G03*
X84649479Y-68180429I2254684J1080000D01*
G01*
X85182814Y-66019173D02*
G75*
G03*
X79835000Y-65555170I-2787814J-1080826D01*
G01*
%TO.C,D7*%
X67345000Y-71555000D02*
X67345000Y-72020000D01*
X67345000Y-74180000D02*
X67345000Y-74645000D01*
X67345000Y-74644830D02*
G75*
G03*
X72692815Y-74180827I2560000J1544831D01*
G01*
X72159479Y-72019571D02*
G75*
G03*
X67650316Y-72020000I-2254479J-1080429D01*
G01*
X67650316Y-74180000D02*
G75*
G03*
X72159479Y-74180429I2254684J1080000D01*
G01*
X72692814Y-72019173D02*
G75*
G03*
X67345000Y-71555170I-2787814J-1080826D01*
G01*
%TO.C,D6*%
X78445000Y-85055000D02*
X78445000Y-85520000D01*
X78445000Y-87680000D02*
X78445000Y-88145000D01*
X78445000Y-88144830D02*
G75*
G03*
X83792815Y-87680827I2560000J1544831D01*
G01*
X83259479Y-85519571D02*
G75*
G03*
X78750316Y-85520000I-2254479J-1080429D01*
G01*
X78750316Y-87680000D02*
G75*
G03*
X83259479Y-87680429I2254684J1080000D01*
G01*
X83792814Y-85519173D02*
G75*
G03*
X78445000Y-85055170I-2787814J-1080826D01*
G01*
%TO.C,D5*%
X76645000Y-100455000D02*
X76645000Y-100920000D01*
X76645000Y-103080000D02*
X76645000Y-103545000D01*
X76645000Y-103544830D02*
G75*
G03*
X81992815Y-103080827I2560000J1544831D01*
G01*
X81459479Y-100919571D02*
G75*
G03*
X76950316Y-100920000I-2254479J-1080429D01*
G01*
X76950316Y-103080000D02*
G75*
G03*
X81459479Y-103080429I2254684J1080000D01*
G01*
X81992814Y-100919173D02*
G75*
G03*
X76645000Y-100455170I-2787814J-1080826D01*
G01*
%TO.C,D4*%
X111645000Y-102855000D02*
X111645000Y-103320000D01*
X111645000Y-105480000D02*
X111645000Y-105945000D01*
X111645000Y-105944830D02*
G75*
G03*
X116992815Y-105480827I2560000J1544831D01*
G01*
X116459479Y-103319571D02*
G75*
G03*
X111950316Y-103320000I-2254479J-1080429D01*
G01*
X111950316Y-105480000D02*
G75*
G03*
X116459479Y-105480429I2254684J1080000D01*
G01*
X116992814Y-103319173D02*
G75*
G03*
X111645000Y-102855170I-2787814J-1080826D01*
G01*
%TO.C,D3*%
X106845000Y-85455000D02*
X106845000Y-85920000D01*
X106845000Y-88080000D02*
X106845000Y-88545000D01*
X106845000Y-88544830D02*
G75*
G03*
X112192815Y-88080827I2560000J1544831D01*
G01*
X111659479Y-85919571D02*
G75*
G03*
X107150316Y-85920000I-2254479J-1080429D01*
G01*
X107150316Y-88080000D02*
G75*
G03*
X111659479Y-88080429I2254684J1080000D01*
G01*
X112192814Y-85919173D02*
G75*
G03*
X106845000Y-85455170I-2787814J-1080826D01*
G01*
%TO.C,D2*%
X119245000Y-72455000D02*
X119245000Y-72920000D01*
X119245000Y-75080000D02*
X119245000Y-75545000D01*
X119245000Y-75544830D02*
G75*
G03*
X124592815Y-75080827I2560000J1544831D01*
G01*
X124059479Y-72919571D02*
G75*
G03*
X119550316Y-72920000I-2254479J-1080429D01*
G01*
X119550316Y-75080000D02*
G75*
G03*
X124059479Y-75080429I2254684J1080000D01*
G01*
X124592814Y-72919173D02*
G75*
G03*
X119245000Y-72455170I-2787814J-1080826D01*
G01*
%TO.C,D1*%
X108345000Y-67055000D02*
X108345000Y-67520000D01*
X108345000Y-69680000D02*
X108345000Y-70145000D01*
X108345000Y-70144830D02*
G75*
G03*
X113692815Y-69680827I2560000J1544831D01*
G01*
X113159479Y-67519571D02*
G75*
G03*
X108650316Y-67520000I-2254479J-1080429D01*
G01*
X108650316Y-69680000D02*
G75*
G03*
X113159479Y-69680429I2254684J1080000D01*
G01*
X113692814Y-67519173D02*
G75*
G03*
X108345000Y-67055170I-2787814J-1080826D01*
G01*
%TO.C,J1*%
X93970000Y-51440000D02*
X93200000Y-51440000D01*
X96510000Y-52000000D02*
X95550000Y-52000000D01*
X93200000Y-57760000D02*
X93200000Y-51440000D01*
X98860000Y-52000000D02*
X98090000Y-52000000D01*
X98860000Y-57300000D02*
X93200000Y-57300000D01*
X98860000Y-57760000D02*
X93200000Y-57760000D01*
X96510000Y-51440000D02*
X95550000Y-51440000D01*
X99100000Y-51200000D02*
X98600000Y-51200000D01*
X93970000Y-52000000D02*
X93200000Y-52000000D01*
X98860000Y-51440000D02*
X98090000Y-51440000D01*
X98860000Y-57760000D02*
X98860000Y-51440000D01*
X99100000Y-51940000D02*
X99100000Y-51200000D01*
D11*
%TO.C,U1*%
X87100000Y-78750000D02*
X105100000Y-78750000D01*
X87100000Y-78750000D02*
X87100000Y-101450000D01*
X87100000Y-101450000D02*
X91600000Y-101450000D01*
X105100000Y-78750000D02*
X105100000Y-101450000D01*
X91600000Y-102750000D02*
X100600000Y-102750000D01*
X91600000Y-102750000D02*
X91600000Y-101450000D01*
X100600000Y-102750000D02*
X100600000Y-101450000D01*
X100600000Y-101450000D02*
X105100000Y-101450000D01*
%TD*%
M02*
